<?xml version="1.0" encoding="UTF-8"?>
<svg width="114px" height="115px" viewBox="0 0 114 115" version="1.1" xmlns="http://www.w3.org/2000/svg" xmlns:xlink="http://www.w3.org/1999/xlink">
    <title>tremf_tfemf_logomark</title>
    <g id="Page-1" stroke="none" stroke-width="1" fill="none" fill-rule="evenodd">
        <g id="t" transform="translate(-31, -23)">
            <g id="Group" transform="translate(31, 23.0812)">
                <g id="tremf_tfemf_logomark" transform="translate(-0, 0)">
                    <g id="circle" transform="translate(57, 57) scale(-1, 1) rotate(-180) translate(-57, -57)translate(0, 0)" fill="#fff" fill-rule="nonzero">
                        <path d="M57.0711499,9.32589286 C31.2615073,9.32589286 10.0232486,31.3883929 10.0232486,57.1517857 C10.0232486,82.9151786 31.2615073,104.678571 57.0711499,104.678571 C82.5828522,104.678571 103.678811,82.9151786 103.678811,57.1517857 C103.678811,31.3883929 82.5828522,9.32589286 57.0711499,9.32589286 M52.0595257,114 C22.8613668,111.482143 1.27437116e-14,87.0580357 1.27437116e-14,57.1517857 C1.27437116e-14,27.3883929 22.8613668,2.52232143 52.0595257,5.68434189e-14 L61.9360275,5.68434189e-14 C90.8451396,2.36160714 114,27.3883929 114,57.1517857 C114,87.1964286 90.8451396,111.633929 61.9360275,114 L52.0595257,114 Z" id="path4333"></path>
                    </g>
                    <g id="tilde" transform="translate(57.1414, 56.4188) scale(-1, 1) rotate(-180) translate(-57.1414, -56.4188)translate(26.8524, 44.1003)">
                        <path d="M60.578,18.318 L51.3019709,24.6369863 C49.2966692,21.6287157 47.5040932,19.6169345 45.8141115,18.3175964 L60.578,18.318 Z M33.4070424,18.3174341 C28.6864639,20.6750172 23.3217972,24.1841005 17.9590841,24.1841005 C13.51018,24.1841005 9.5304968,22.3337649 5.89334343,18.3192082 Z M56.4542781,9.31770362 C57.5363653,10.8220914 58.5837794,12.493471 59.6154,14.31813 L2.84207685,14.3184334 C1.87143669,12.8324043 0.92501747,11.1680254 1.34455832e-14,9.31831183 Z M9.13498014,5.68434189e-14 C10.7669641,2.19953467 12.2828564,3.9761973 13.7377335,5.31985238 L1.218,5.318 Z M41.1666547,0.149452307 C45.8865321,0.149452307 49.7078017,1.98184859 53.083482,5.31761166 L27.4609296,5.31900232 C31.4300614,2.97335482 36.0954392,0.149452307 41.1666547,0.149452307 Z" id="Combined-Shape" fill="#fff" fill-rule="nonzero"></path>
                        <g id="Group-2" transform="translate(-1.3524, 5.3185)"></g>
                    </g>
                </g>
            </g>
        </g>
    </g>
</svg>