<?xml version="1.0" encoding="UTF-8" standalone="no"?>
<svg xmlns="http://www.w3.org/2000/svg" width="462.51501" height="219.69624">
  <g transform="matrix(1.25 0 0 -1.25 -68.75 400.8525)">
    <path fill="#089491" d="M408.484 260.546v-9.907h-6.609l22.43-44.851c.465-.926.707-1.938.707-2.961v-21.563c0-7.3-5.918-13.214-13.219-13.214H68.219c-7.301 0-13.219 5.914-13.219 13.214v21.563c0 1.023.23 2.035.691 2.961l22.434 44.851h-6.609v9.907h59.464l3.301 3.308h27.082l-39.64 26.426 45.601 30.402 45.598-30.402-39.652-26.426h27.085l3.309-3.308"/>
    <path fill="#fff" d="M382.051 250.639h13.918l14.758-29.515c2.859-5.715.539-12.664-5.168-15.512-1.606-.805-3.375-1.223-5.168-1.223h-18.34m-13.207 46.25c3.648 0 6.609-2.957 6.609-6.609v-62.766c0-3.648-2.961-6.605-6.609-6.605H342.41c-3.652 0-6.609 2.957-6.609 6.605v62.766c0 3.652 2.957 6.609 6.609 6.609m-19.824 0c3.648 0 6.617-2.957 6.617-6.609v-33.031c0-3.653-2.969-6.61-6.617-6.61h-46.25c-3.652 0-6.609 2.957-6.609 6.61v33.031c0 3.652 2.957 6.609 6.609 6.609m-19.816 0c3.652 0 6.609-2.957 6.609-6.609v-33.031c0-3.653-2.957-6.61-6.609-6.61h-46.258c-3.641 0-6.598 2.957-6.598 6.61v33.031c0 3.652 2.957 6.609 6.598 6.609m-19.813 0c3.649 0 6.606-2.957 6.606-6.609v-33.031c0-3.653-2.957-6.61-6.606-6.61h-46.25c-3.652 0-6.609 2.957-6.609 6.61v33.031c0 3.652 2.957 6.609 6.609 6.609m-19.824 0c3.648 0 6.605-2.957 6.605-6.609v-62.766c0-3.648-2.957-6.605-6.605-6.605h-13.219c-3.648 0-6.609 2.957-6.609 6.605v62.766c0 3.652 2.961 6.609 6.609 6.609m-13.215 0v-46.25h-18.32c-6.391 0-11.566 5.168-11.566 11.559 0 1.801.418 3.563 1.218 5.176l14.758 29.515"/>
    <path fill="#089491" d="M190.449 161.44c0-9.125-7.402-16.515-16.515-16.515-9.129 0-16.52 7.39-16.52 16.515zm-39.64 0c0-3.429.757-6.816 2.218-9.906h-27.578c1.465 3.09 2.223 6.477 2.223 9.906zm-29.735 0c0-9.125-7.398-16.515-16.527-16.515-9.113 0-16.516 7.39-16.516 16.515m303.938 0h-33.031c0-9.125 7.386-16.515 16.515-16.515 9.113 0 16.516 7.39 16.516 16.515zm-39.653 0c0-3.429.77-6.816 2.243-9.906h-27.586c1.461 3.09 2.23 6.477 2.23 9.906zm-29.73 0c0-9.125-7.391-16.515-16.52-16.515-9.113 0-16.515 7.39-16.515 16.515"/>
    <path fill="#fff" d="m167.324 263.854-39.652 26.426 39.652 26.434 39.641-26.434"/>
  </g>
</svg>